<svg width="40" height="40" viewBox="0 0 40 40" fill="none" xmlns="http://www.w3.org/2000/svg">
<path d="M29.9959 11.4011C28.1072 10.5485 26.109 9.94263 24.0543 9.59961C23.7984 10.046 23.4994 10.6465 23.2932 11.1242C21.0778 10.8028 18.8828 10.8028 16.7082 11.1242C16.5021 10.6466 16.1963 10.046 15.938 9.59961C13.8813 9.94278 11.8814 10.5502 9.99183 11.4055C6.23163 16.8879 5.21226 22.234 5.72189 27.5044C8.2159 29.3013 10.6329 30.3929 13.0091 31.1072C13.5996 30.3237 14.1217 29.4941 14.5698 28.6271C13.7166 28.3138 12.8941 27.9276 12.1121 27.4731C12.3179 27.3259 12.5189 27.1726 12.7147 27.0132C17.4534 29.1517 22.6023 29.1517 27.2845 27.0132C27.4812 27.1715 27.6821 27.3249 27.887 27.4731C27.1037 27.9287 26.2797 28.3157 25.4248 28.6294C25.8755 29.4999 26.3966 30.3303 26.9855 31.1094C29.364 30.3952 31.7832 29.3036 34.2772 27.5044C34.8753 21.3947 33.2557 16.0976 29.9959 11.401V11.4011ZM15.2154 24.2632C13.7929 24.2632 12.6262 22.9818 12.6262 21.4215C12.6262 19.8612 13.768 18.5777 15.2154 18.5777C16.663 18.5777 17.8295 19.859 17.8046 21.4215C17.8069 22.9818 16.663 24.2632 15.2154 24.2632ZM24.7837 24.2632C23.3611 24.2632 22.1946 22.9818 22.1946 21.4215C22.1946 19.8612 23.3362 18.5777 24.7837 18.5777C26.2312 18.5777 27.3977 19.859 27.3729 21.4215C27.3729 22.9818 26.2312 24.2632 24.7837 24.2632Z" fill="#F9F9F9"/>
</svg>
