<svg width="143" height="43" viewBox="0 0 143 43" fill="none" xmlns="http://www.w3.org/2000/svg">
<g clip-path="url(#clip0_122_641)">
<path d="M141.479 27.8602C140.554 27.0001 139.402 26.5437 138.138 26.5437H127.229V5.30698C127.229 3.97585 126.694 2.74126 125.708 1.81385C124.786 0.953735 123.631 0.500272 122.367 0.500272H114.091C112.874 0.500272 111.704 0.971289 110.794 1.82263C109.82 2.73541 109.282 3.97 109.282 5.30698V6.49769C107.6 4.56389 105.496 3.01626 102.954 1.92795C100.034 0.681657 96.6498 0.0468091 92.8906 0.0468091C89.1285 0.0468091 85.7438 0.678732 82.8272 1.92795C80.3026 3.00456 78.2138 4.53756 76.5493 6.4538V5.30698C76.5493 4.02266 76.0549 2.8144 75.1392 1.89284C74.2353 0.994693 73.0271 0.497347 71.7399 0.497347H65.1021C63.0719 0.497347 61.8344 1.3955 61.1411 2.16199C60.7433 2.60376 60.4829 2.91679 60.3483 3.09233L60.2196 3.26493L55.1733 12.0387L50.124 3.26493L49.9953 3.09233C49.8607 2.91387 49.5975 2.60083 49.2025 2.16199C48.5238 1.40427 47.2835 0.497347 45.2415 0.497347H38.6067C37.3429 0.497347 36.1874 0.95081 35.2512 1.82555C34.2829 2.73833 33.7476 3.97292 33.7476 5.30405V5.76044C33.2327 5.22214 32.712 4.68383 32.0947 4.18941C30.5296 2.93142 28.6047 1.90162 26.3697 1.13512C24.161 0.383249 21.6393 0 18.8748 0C15.5252 0 12.5003 0.564635 9.88206 1.6822C7.12632 2.86413 4.92641 4.56389 3.34083 6.73173C1.68505 9.0049 0.845458 11.6321 0.845458 14.5401C0.845458 17.3749 1.54463 19.8412 2.9225 21.8715C3.59827 22.8721 4.42324 23.7673 5.38862 24.5514H4.55488C3.33206 24.5514 2.18822 25.0195 1.32523 25.8766C0.468079 26.7338 -0.00291187 27.8807 1.35462e-05 29.2411C0.0907013 31.7044 0.927369 34.0419 2.48954 36.1893C4.01075 38.284 6.24869 39.9691 9.14778 41.2008C11.883 42.3593 15.2707 42.9503 19.2258 42.9503C22.7041 42.9503 25.8724 42.409 28.6369 41.3441C30.6379 40.5776 32.358 39.5391 33.8178 38.2811C33.9611 39.3694 34.4467 40.367 35.2571 41.1247C36.1786 41.9936 37.34 42.4529 38.6125 42.4529H46.0957C47.3975 42.4529 48.6116 41.9497 49.4951 41.0545C50.4049 40.1505 50.9051 38.9393 50.9051 37.6433V33.3193C51.5662 33.7347 52.4644 34.0682 53.6316 34.0682H56.6769C57.8734 34.0682 58.7832 33.7318 59.4532 33.3164V37.6433C59.4532 38.9393 59.9534 40.1505 60.8427 41.034C61.7467 41.9468 62.9607 42.45 64.2625 42.45H71.7487C73.0446 42.45 74.2558 41.9497 75.1539 41.0486C76.0578 40.1417 76.5551 38.9335 76.5551 37.6433V36.7685C78.246 38.6965 80.364 40.2149 82.9179 41.2476C85.7965 42.409 89.1519 43.0029 92.8935 43.0029C96.6352 43.0029 99.9906 42.412 102.866 41.2505C105.449 40.209 107.585 38.6672 109.285 36.7071V37.6462C109.285 38.989 109.826 40.2295 110.782 41.1218C111.692 41.9819 112.868 42.4558 114.094 42.4558H138.144C139.416 42.4558 140.575 41.9965 141.49 41.1335C142.465 40.2207 143.003 38.9861 143.003 37.6491V31.3621C143 30.028 142.468 28.7964 141.479 27.8602Z" fill="#372B79"/>
<path d="M92.8906 39.4895C89.5907 39.4895 86.7062 38.9921 84.2313 37.9916C81.7564 36.9939 79.8052 35.4902 78.3747 33.4774C76.9441 31.4646 76.1601 28.9779 76.0256 26.0172C75.9905 24.6539 75.9758 23.2057 75.9758 21.6757C75.9758 20.1456 75.9934 18.6653 76.0256 17.2347C76.1601 14.3062 76.9324 11.8282 78.3483 9.80079C79.7642 7.77337 81.7155 6.22574 84.2079 5.16084C86.6975 4.09593 89.5936 3.56348 92.8906 3.56348C96.1875 3.56348 99.0837 4.09593 101.576 5.16084C104.066 6.22574 106.029 7.77337 107.459 9.80079C108.89 11.8311 109.656 14.3091 109.756 17.2347C109.823 18.6653 109.858 20.1456 109.858 21.6757C109.858 23.2057 109.823 24.6539 109.756 26.0172C109.621 28.9779 108.837 31.4646 107.406 33.4774C105.976 35.4902 104.025 36.9939 101.547 37.9916C99.0778 38.9921 96.1904 39.4895 92.8906 39.4895Z" fill="#7D50E6"/>
<path d="M89.3917 11.2869H86.4663V20.0636H89.3917V11.2869Z" fill="#F9F9F9"/>
<path d="M104.019 11.2869H101.093V20.0636H104.019V11.2869Z" fill="#F9F9F9"/>
<path d="M106.944 22.9893H104.019V25.9148H106.944V22.9893Z" fill="#F9F9F9"/>
<path d="M98.168 22.9893H95.2426V25.9148H98.168V22.9893Z" fill="#F9F9F9"/>
<path d="M86.4663 25.9148H83.5409V28.8404H86.4663V25.9148Z" fill="#F9F9F9"/>
<path d="M112.795 28.8403H86.4663V31.7659H112.795V28.8403Z" fill="#F9F9F9"/>
<path d="M19.2258 39.4367C15.7329 39.4367 12.8309 38.9481 10.5198 37.9681C8.20871 36.9851 6.47687 35.7037 5.3301 34.1239C4.18334 32.547 3.57486 30.8736 3.5105 29.1095C3.5105 28.8081 3.60996 28.5595 3.80889 28.3605C4.00782 28.1616 4.2594 28.0621 4.5578 28.0621H12.4915C12.9567 28.0621 13.3223 28.1352 13.5885 28.2874C13.8548 28.4366 14.1385 28.6443 14.4369 28.9105C14.7353 29.2791 15.0864 29.6185 15.4842 29.9345C15.8821 30.2504 16.3999 30.4991 17.0318 30.6834C17.6636 30.8648 18.395 30.9555 19.2258 30.9555C20.7558 30.9555 21.9377 30.7478 22.7685 30.3294C23.5993 29.914 24.0176 29.3406 24.0176 28.6092C24.0176 28.0446 23.7924 27.5765 23.3448 27.2108C22.8914 26.848 22.1337 26.5145 21.0717 26.2161C20.0069 25.9147 18.5588 25.6017 16.7304 25.2682C14.1678 24.8352 11.9562 24.1945 10.0927 23.3461C8.22919 22.4977 6.80744 21.3509 5.82742 19.9027C4.84741 18.4575 4.35594 16.667 4.35594 14.5401C4.35594 12.3781 4.96443 10.4648 6.17847 8.80017C7.39252 7.13845 9.08926 5.84242 11.2687 4.90624C13.4452 3.97883 15.9815 3.51074 18.8748 3.51074C21.2677 3.51074 23.3887 3.8267 25.2375 4.45863C27.0835 5.09347 28.6398 5.91556 29.9036 6.93073C31.1673 7.9459 32.1327 9.03421 32.7968 10.1986C33.4609 11.363 33.8119 12.4776 33.8441 13.5425C33.8441 13.8438 33.7359 14.1013 33.5194 14.3178C33.3029 14.5343 33.063 14.6425 32.7968 14.6425H24.4652C24.0674 14.6425 23.7339 14.5752 23.4677 14.4436C23.1985 14.3061 22.9323 14.0896 22.669 13.7912C22.4993 13.326 22.0839 12.9106 21.4199 12.542C20.7529 12.1763 19.9045 11.9949 18.8748 11.9949C17.7426 11.9949 16.8796 12.188 16.2799 12.5683C15.6802 12.9486 15.3818 13.5074 15.3818 14.2388C15.3818 14.7361 15.5632 15.1691 15.9318 15.5348C16.2975 15.9034 16.9469 16.2282 17.8772 16.509C18.8075 16.7899 20.1064 17.1 21.768 17.4335C24.9274 17.8987 27.4813 18.5657 29.4267 19.4288C31.3721 20.2947 32.7939 21.424 33.692 22.8195C34.5901 24.2179 35.0406 25.9645 35.0406 28.0592C35.0406 30.4201 34.359 32.4505 32.9928 34.1473C31.6296 35.8412 29.7573 37.1489 27.3789 38.0617C25.0035 38.9803 22.2858 39.4367 19.2258 39.4367Z" fill="#7D50E6"/>
<path d="M38.6125 38.9393C38.2469 38.9393 37.9309 38.8135 37.6647 38.5649C37.3985 38.3162 37.2668 38.0061 37.2668 37.6404V5.30994C37.2668 4.94424 37.3985 4.63706 37.6647 4.38546C37.9309 4.13679 38.2469 4.01099 38.6125 4.01099H45.2474C45.8471 4.01099 46.2947 4.17482 46.5931 4.50833C46.8914 4.84185 47.0933 5.07297 47.1928 5.20754L55.1762 19.0777L63.1597 5.20754C63.2591 5.07589 63.4581 4.84185 63.7594 4.50833C64.0607 4.17482 64.5083 4.01099 65.108 4.01099H71.7428C72.1085 4.01099 72.4157 4.13679 72.6673 4.38546C72.9159 4.63413 73.0417 4.94424 73.0417 5.30994V37.6433C73.0417 38.009 72.9159 38.3162 72.6673 38.5678C72.4157 38.8165 72.1085 38.9423 71.7428 38.9423H64.2567C63.891 38.9423 63.5839 38.8165 63.3323 38.5678C63.0836 38.3191 62.9578 38.009 62.9578 37.6433V21.4766L58.4673 29.361C58.3006 29.6302 58.0841 29.8935 57.8179 30.1597C57.5517 30.4259 57.1684 30.5576 56.6711 30.5576H53.6257C53.1606 30.5576 52.792 30.4259 52.5287 30.1597C52.2625 29.8935 52.046 29.6302 51.8793 29.361L47.3888 21.4766V37.6433C47.3888 38.009 47.263 38.3162 47.0143 38.5678C46.7657 38.8165 46.4585 38.9423 46.0899 38.9423H38.6125V38.9393Z" fill="#7D50E6"/>
<path d="M114.091 38.9393C113.758 38.9393 113.459 38.8135 113.193 38.5649C112.927 38.3162 112.795 38.0061 112.795 37.6404V5.30994C112.795 4.94424 112.927 4.63706 113.193 4.38546C113.459 4.13679 113.758 4.01099 114.091 4.01099H122.373C122.739 4.01099 123.055 4.13679 123.321 4.38546C123.587 4.63413 123.719 4.94424 123.719 5.30994V30.0573H138.138C138.504 30.0573 138.82 30.1831 139.086 30.4318C139.352 30.6834 139.484 30.9906 139.484 31.3563V37.6462C139.484 38.0119 139.349 38.3191 139.086 38.5707C138.82 38.8194 138.504 38.9452 138.138 38.9452H114.091V38.9393Z" fill="#7D50E6"/>
</g>
<defs>
<clipPath id="clip0_122_641">
<rect width="143" height="43" fill="white"/>
</clipPath>
</defs>
</svg>
