<svg width="176" height="46" viewBox="0 0 176 46" fill="none" xmlns="http://www.w3.org/2000/svg">
<path d="M56.1046 33.1289C56.1433 33.231 56.1356 33.3334 56.0737 33.4197C56.0093 33.5063 55.9217 33.5614 55.8109 33.5614H48.7735C48.6627 33.5614 48.5751 33.5141 48.5107 33.4197C48.4488 33.3334 48.4411 33.2231 48.4797 33.1289L49.3456 30.9901V15.815L43.0812 17.8121C42.9782 17.8436 42.8828 17.8279 42.7952 17.7649C42.7076 17.7022 42.6689 17.6156 42.6689 17.5135V12.5441C42.6689 12.3712 42.8107 12.2295 42.9859 12.2295H61.6062C61.7814 12.2295 61.9232 12.3712 61.9232 12.5441V17.5135C61.9232 17.6156 61.8768 17.7101 61.7892 17.7649C61.7016 17.8279 61.6062 17.8436 61.5031 17.8121L55.2388 15.815V30.9825L56.1046 33.1211V33.1289V33.1289Z" fill="#FFFDF7"/>
<path d="M62.9408 30.9978V22.2466L61.8997 20.5325C61.8534 20.446 61.8353 20.3515 61.8765 20.2652C61.9075 20.1707 61.9796 20.1077 62.075 20.0765L63.165 19.7383H63.1727L68.4269 18.3152C68.5222 18.2916 68.6176 18.3074 68.6975 18.3701C68.7773 18.4331 68.816 18.5196 68.816 18.6138V19.7146C69.5246 19.0699 70.4317 18.5433 71.282 18.2444C72.2046 17.9219 73.2147 17.8041 74.1681 18.0872C74.3021 18.1263 74.3897 18.2444 74.3897 18.3858V23.0012C74.3897 23.1272 74.3098 23.245 74.1913 23.2923C74.0728 23.3395 73.9362 23.308 73.8486 23.2135C73.0704 22.3959 71.934 22.097 70.8285 22.2859C70.0812 22.4195 69.0479 22.8834 68.8572 23.6932C68.8418 23.7719 68.8263 23.8583 68.8263 23.937V30.982L69.6921 33.1209C69.7308 33.2151 69.7231 33.3253 69.6586 33.4116C69.5968 33.4982 69.5092 33.5454 69.3984 33.5454H62.361C62.2579 33.5454 62.1626 33.4982 62.0982 33.4116C62.0363 33.3253 62.026 33.2229 62.0672 33.1209L62.9331 30.982L62.9408 30.9978Z" fill="#FFFDF7"/>
<path d="M86.3256 24.1574C86.3566 23.6541 86.2921 23.1429 86.1736 22.6632C85.8154 21.2875 84.7589 19.707 83.0969 20.0922C83.0247 20.1079 82.9526 20.1316 82.883 20.1552C82.079 20.4695 81.6409 21.4053 81.4348 22.176C81.1333 23.2922 81.141 24.5662 81.324 25.7218L86.3256 24.1574ZM81.9527 27.9942C82.6124 29.9835 84.6868 31.163 86.689 31.4462C87.0394 31.4931 87.3976 31.5168 87.7558 31.5168C88.9566 31.5168 90.1651 31.2339 91.2139 30.6519C91.3479 30.581 91.5077 30.6046 91.6108 30.7227C91.7061 30.8405 91.7061 31.0059 91.6108 31.1158C89.8534 33.1759 87.1193 33.9149 84.4806 33.9149C79.5434 33.9149 75.5596 31.0528 75.5596 25.9029C75.5596 20.7527 79.5176 17.9221 84.4394 17.9221C89.003 17.9221 91.5721 20.0292 91.8581 24.5662C91.8659 24.7076 91.7783 24.8336 91.6443 24.8806L90.562 25.2188L87.1502 26.2881L81.9424 27.9158L81.9605 27.9785" fill="#FFFDF7"/>
<path d="M103.705 24.7792C102.458 24.9049 101.337 25.4711 100.502 26.4224C99.8266 27.193 99.3009 28.3017 99.3576 29.3316C99.3808 29.7562 99.5225 30.1653 99.8884 30.4167C100.566 30.8806 101.574 30.6056 102.202 30.1965C103.197 29.5518 103.705 28.4746 103.705 27.3187V24.787V24.7792ZM110.456 33.1373C110.495 33.2317 110.487 33.3417 110.423 33.4283C110.361 33.5146 110.273 33.5618 110.162 33.5618H104.017C103.841 33.5618 103.705 33.4204 103.705 33.2554V32.3118C102.195 33.444 100.43 33.9313 98.4969 33.9313C96.3762 33.9313 94.2193 33.1373 93.3458 31.0771C92.4722 29.033 93.3071 26.7842 94.7759 25.2431C97.0101 22.9077 100.486 22.1294 103.625 22.1294C103.651 22.1294 103.674 22.1294 103.705 22.1294C103.674 21.571 103.514 20.9499 103.022 20.6434C100.986 19.3773 97.7496 21.2252 96.0489 22.4204C95.969 22.4753 95.8814 22.491 95.7861 22.4674C95.6907 22.444 95.6289 22.3889 95.5799 22.3023L94.2193 19.5111C94.1807 19.4324 94.1807 19.354 94.2116 19.2674C94.2451 19.1887 94.2992 19.1259 94.3791 19.0944C98.9118 17.16 109.588 16.6491 109.588 23.6784V30.9987L110.456 33.1373Z" fill="#FFFDF7"/>
<path d="M124.871 19.7785L122.652 22.9C122.595 22.9785 122.516 23.0178 122.42 23.0336C122.325 23.0415 122.237 23.01 122.175 22.947C121.188 21.9879 119.377 20.1322 117.921 20.1322C116.465 20.1322 116.697 21.3744 117.658 22.0194C118.184 22.3652 118.795 22.6484 119.369 22.9C120.075 23.2144 120.784 23.5211 121.474 23.8591C123.461 24.8421 125.371 26.1945 125.371 28.6162C125.371 32.7205 121.348 33.9315 117.872 33.9315C115.584 33.9315 113.293 33.2317 111.353 32.0522C111.275 32.0049 111.226 31.9343 111.211 31.8477C111.195 31.7611 111.211 31.6827 111.257 31.604L113.692 28.215C113.746 28.1366 113.826 28.0972 113.922 28.0893C114.017 28.0815 114.105 28.1129 114.169 28.1759C115.29 29.2688 116.506 30.4953 117.906 31.2424C118.256 31.431 118.684 31.5489 119.081 31.6118C119.766 31.7142 121.047 31.7142 121.047 30.747C121.047 30.1652 120.116 29.6068 119.678 29.3552C119.186 29.0723 118.676 28.8285 118.168 28.5847C117.586 28.3095 117.006 28.0421 116.434 27.7513C115.901 27.484 115.37 27.2008 114.867 26.8862C114.136 26.4304 113.396 25.8799 112.888 25.18C112.587 24.7633 112.378 24.2915 112.283 23.7961C112.069 22.6953 112.378 21.5318 112.961 20.5882C113.293 20.0456 113.739 19.5504 114.257 19.1728C115.607 18.1744 117.437 17.9385 119.073 17.9385C121.204 17.9385 122.874 18.3316 124.742 19.3224C124.822 19.3618 124.878 19.4323 124.902 19.5268C124.925 19.6131 124.902 19.6997 124.853 19.7785" fill="#FFFDF7"/>
<path d="M133.282 28.8826C133.282 29.26 133.328 29.8496 133.72 30.0461C134.259 30.3293 135.269 29.8339 135.738 29.5743C136.233 29.2993 136.797 28.9611 137.24 28.5995V22.2464L136.199 20.5322C136.153 20.4458 136.137 20.3514 136.176 20.265C136.207 20.1706 136.279 20.1076 136.374 20.0763L137.464 19.7381H137.472L142.726 18.3148C142.822 18.2915 142.917 18.3148 142.997 18.3699C143.077 18.4329 143.118 18.5195 143.118 18.6137V30.9897L143.984 33.1283C144.022 33.2228 144.015 33.3328 143.953 33.4193C143.888 33.5059 143.801 33.5529 143.69 33.5529H137.48C137.305 33.5529 137.171 33.4115 137.171 33.2464V31.6423C136.446 32.2086 135.715 32.7667 134.911 33.2071C133.942 33.734 132.878 33.9226 131.787 33.9226C129.077 33.9384 127.399 32.2556 127.399 29.551V22.2386L126.358 20.5243C126.309 20.4379 126.294 20.3435 126.332 20.2571C126.366 20.1627 126.435 20.0997 126.531 20.0685L127.621 19.7302H127.628L132.885 18.3072C132.981 18.2836 133.076 18.3072 133.156 18.3621C133.233 18.425 133.274 18.5116 133.274 18.6058V28.8748L133.282 28.8826Z" fill="#FFFDF7"/>
<path d="M147.083 30.9978V22.2466L146.042 20.5325C145.993 20.446 145.978 20.3515 146.019 20.2652C146.05 20.1707 146.122 20.1077 146.217 20.0765L147.307 19.7383H147.315L152.569 18.3152C152.665 18.2916 152.76 18.3074 152.84 18.3701C152.92 18.4331 152.958 18.5196 152.958 18.6138V19.7146C153.667 19.0699 154.574 18.5433 155.424 18.2444C156.347 17.9219 157.354 17.8041 158.31 18.0872C158.444 18.1263 158.532 18.2444 158.532 18.3858V23.0012C158.532 23.1272 158.452 23.245 158.334 23.2923C158.215 23.3395 158.079 23.308 157.991 23.2135C157.213 22.3959 156.076 22.097 154.971 22.2859C154.224 22.4195 153.19 22.8834 153 23.6932C152.984 23.7719 152.966 23.8583 152.966 23.937V30.982L153.834 33.1209C153.873 33.2151 153.865 33.3253 153.801 33.4116C153.739 33.4982 153.651 33.5454 153.538 33.5454H146.503C146.4 33.5454 146.305 33.4982 146.24 33.4116C146.176 33.3253 146.168 33.2229 146.21 33.1209L147.075 30.982L147.083 30.9978Z" fill="#FFFDF7"/>
<path d="M170.466 24.1574C170.499 23.6541 170.435 23.1429 170.316 22.6632C169.958 21.2875 168.901 19.707 167.239 20.0922C167.167 20.1079 167.095 20.1316 167.023 20.1552C166.222 20.4695 165.784 21.4053 165.577 22.176C165.276 23.2922 165.284 24.5662 165.467 25.7218L170.466 24.1574ZM166.093 27.9942C166.752 29.9835 168.829 31.163 170.832 31.4462C171.182 31.4931 171.54 31.5168 171.898 31.5168C173.099 31.5168 174.308 31.2339 175.357 30.6519C175.491 30.581 175.65 30.6046 175.753 30.7227C175.849 30.8405 175.849 31.0059 175.753 31.1158C173.996 33.1759 171.262 33.9149 168.623 33.9149C163.686 33.9149 159.702 31.0528 159.702 25.9029C159.702 20.7527 163.66 17.9221 168.582 17.9221C173.146 17.9221 175.715 20.0292 176.001 24.5662C176.008 24.7076 175.921 24.8336 175.787 24.8806L174.705 25.2188L171.293 26.2881L166.085 27.9158C166.085 27.9158 166.1 27.9549 166.1 27.9785" fill="#FFFDF7"/>
<path d="M0 15.4274V30.4476C0 32.9341 1.34305 35.2276 3.51482 36.4632L13.5259 42.1779C15.1338 43.0969 17.1077 43.0969 18.7182 42.1779L28.7293 36.4632C30.899 35.22 32.2415 32.9265 32.2415 30.4476V15.4274C32.2415 12.9407 30.899 10.6472 28.7293 9.41154L18.7182 3.68923C17.1077 2.77026 15.1338 2.77026 13.5259 3.68923L3.51482 9.40392C1.34305 10.6472 0 12.9407 0 15.4274Z" fill="#DC2626"/>
<path d="M28.3461 22.5396L24.6689 21.3042C23.3187 20.8484 22.3111 19.721 22.0303 18.3388L20.4738 10.7552C20.4352 10.5622 20.2651 10.4233 20.0615 10.4233C19.858 10.4233 19.6853 10.5622 19.6467 10.7552L18.0928 18.3388C17.8119 19.721 16.8044 20.8484 15.4541 21.3042L11.777 22.5396C11.6043 22.5937 11.4961 22.756 11.4961 22.9334C11.4961 23.1112 11.6121 23.2656 11.777 23.3273L15.4541 24.5629C16.8044 25.0187 17.8119 26.1462 18.0928 27.5283L19.6467 35.1119C19.6853 35.3049 19.858 35.4438 20.0615 35.4438C20.2651 35.4438 20.4352 35.3049 20.4738 35.1119L22.0303 27.5283C22.3111 26.1462 23.3187 25.0187 24.6689 24.5629L28.3461 23.3273C28.5188 23.2735 28.627 23.1112 28.627 22.9334C28.627 22.756 28.511 22.6016 28.3461 22.5396Z" fill="#FFFDF7"/>
<path d="M8.55753 15.5821L9.85368 16.0146C10.3304 16.1768 10.6912 16.5704 10.7839 17.0648L11.3302 19.7446C11.3457 19.8139 11.4075 19.8604 11.4797 19.8604C11.5492 19.8604 11.6111 19.8139 11.6266 19.7446L12.1728 17.0648C12.2759 16.5783 12.6264 16.1768 13.1108 16.0146L14.407 15.5821C14.4688 15.559 14.5075 15.5049 14.5075 15.443C14.5075 15.3813 14.4688 15.3272 14.407 15.3041L13.1108 14.8716C12.6341 14.7094 12.2759 14.3155 12.1728 13.8214L11.6266 11.1417C11.6111 11.0721 11.5492 11.0259 11.4797 11.0259C11.4075 11.0259 11.3457 11.0721 11.3302 11.1417L10.7839 13.8214C10.6834 14.3079 10.3304 14.7094 9.85368 14.8716L8.55753 15.3041C8.49568 15.3272 8.45703 15.3813 8.45703 15.443C8.45703 15.5049 8.49568 15.559 8.55753 15.5821Z" fill="#FFFDF7"/>
<path d="M11.588 28.7409L9.84606 28.1617C9.207 27.9456 8.73028 27.4126 8.59628 26.7562L7.86446 23.1654C7.84642 23.0727 7.76138 23.011 7.66862 23.011C7.57327 23.011 7.48824 23.0727 7.47278 23.1654L6.73838 26.7562C6.60696 27.4126 6.13024 27.9456 5.4886 28.1617L3.74923 28.7409C3.66935 28.764 3.61523 28.8415 3.61523 28.9263C3.61523 29.0113 3.66935 29.0885 3.74923 29.1117L5.4886 29.6909C6.13024 29.907 6.60696 30.44 6.73838 31.0964L7.47278 34.6872C7.48824 34.7799 7.57327 34.8416 7.66862 34.8416C7.76138 34.8416 7.83869 34.7723 7.86446 34.6872L8.59628 31.0964C8.73028 30.44 9.207 29.907 9.84606 29.6909L11.588 29.1117C11.6653 29.0885 11.722 29.0113 11.722 28.9263C11.722 28.8415 11.6653 28.764 11.588 28.7409Z" fill="#FFFDF7"/>
</svg>
