<svg width="40" height="40" viewBox="0 0 40 40" fill="none" xmlns="http://www.w3.org/2000/svg">
<path fill-rule="evenodd" clip-rule="evenodd" d="M8.42578 25.5002V14.8291C8.42578 13.0624 9.37996 11.433 10.9229 10.5497L18.0353 6.48967C19.1777 5.83678 20.58 5.83678 21.7242 6.48967L28.8366 10.5551C30.3781 11.433 31.3319 13.0624 31.3319 14.8291V25.5002C31.3319 27.2614 30.3781 28.8908 28.8366 29.774L21.7242 33.8341C20.58 34.487 19.1777 34.487 18.0353 33.8341L10.9229 29.774C9.37996 28.8962 8.42578 27.2668 8.42578 25.5002ZM25.9515 19.0043L28.5639 19.882C28.6811 19.926 28.7635 20.0357 28.7635 20.1618C28.7635 20.2881 28.6866 20.4033 28.5639 20.4416L25.9515 21.3194C24.9922 21.6433 24.2764 22.4443 24.0768 23.4262L22.971 28.814C22.9436 28.9511 22.8228 29.0498 22.6781 29.0498C22.5335 29.0498 22.4108 28.9511 22.3834 28.814L21.2794 23.4262C21.0799 22.4443 20.3641 21.6433 19.4048 21.3194L16.7923 20.4416C16.6752 20.3977 16.5928 20.2881 16.5928 20.1618C16.5928 20.0357 16.6697 19.9204 16.7923 19.882L19.4048 19.0043C20.3641 18.6805 21.0799 17.8795 21.2794 16.8975L22.3834 11.5097C22.4108 11.3726 22.5335 11.2739 22.6781 11.2739C22.8228 11.2739 22.9436 11.3726 22.971 11.5097L24.0768 16.8975C24.2764 17.8795 24.9922 18.6805 25.9515 19.0043ZM14.506 14.9389L15.4268 15.2461C15.7655 15.3614 16.0218 15.6411 16.0877 15.9923L16.4758 17.8961C16.4868 17.9454 16.5308 17.9784 16.582 17.9784C16.6314 17.9784 16.6754 17.9454 16.6864 17.8961L17.0745 15.9923C17.1477 15.6466 17.3967 15.3614 17.7409 15.2461L18.6617 14.9389C18.7057 14.9225 18.7331 14.8841 18.7331 14.8401C18.7331 14.7962 18.7057 14.7578 18.6617 14.7414L17.7409 14.4341C17.4022 14.3189 17.1477 14.0391 17.0745 13.688L16.6864 11.7842C16.6754 11.7347 16.6314 11.7019 16.582 11.7019C16.5308 11.7019 16.4868 11.7347 16.4758 11.7842L16.0877 13.688C16.0163 14.0336 15.7655 14.3189 15.4268 14.4341L14.506 14.7414C14.462 14.7578 14.4346 14.7962 14.4346 14.8401C14.4346 14.8841 14.462 14.9225 14.506 14.9389ZM15.4208 23.8761L16.6584 24.2876C16.7133 24.3041 16.7536 24.3591 16.7536 24.4193C16.7536 24.4798 16.7133 24.5346 16.6584 24.551L15.4208 24.9625C14.9668 25.1161 14.6281 25.4947 14.5329 25.9611L14.013 28.5122C13.9947 28.5726 13.9398 28.6219 13.8739 28.6219C13.8061 28.6219 13.7457 28.578 13.7347 28.5122L13.213 25.9611C13.1196 25.4947 12.7809 25.1161 12.3251 24.9625L11.0893 24.551C11.0326 24.5346 10.9941 24.4798 10.9941 24.4193C10.9941 24.3591 11.0326 24.3041 11.0893 24.2876L12.3251 23.8761C12.7809 23.7226 13.1196 23.3439 13.213 22.8776L13.7347 20.3265C13.7457 20.2606 13.8061 20.2168 13.8739 20.2168C13.9398 20.2168 14.0002 20.2606 14.013 20.3265L14.5329 22.8776C14.6281 23.3439 14.9668 23.7226 15.4208 23.8761Z" fill="#FFFDF7"/>
</svg>
