<svg width="696" height="544" viewBox="0 0 696 544" fill="none" xmlns="http://www.w3.org/2000/svg">
<path d="M42 1H654V502H42V1Z" fill="#FFD34E"/>
<path d="M0 501.882H42V543.882H0V501.882Z" fill="#FFD34E"/>
<path d="M653 270H696V312H653V270Z" fill="#FFD34E"/>
<path d="M612.235 0.143799H654.235V42.1438H612.235V0.143799Z" fill="#15153D"/>
<path d="M42 43L42 1L84 0.999998L84 43L42 43Z" fill="#E8B726"/>
<path d="M134 89L134 47L176.81 47L176.81 89L134 89Z" fill="#FFDC71"/>
<path d="M176.81 89L176.81 47L224.81 47L224.81 89L176.81 89Z" fill="#FFDC71"/>
<path d="M612 313H654V355H612V313Z" fill="#FFDC71"/>
<path d="M612 355H654V397.81H612V355Z" fill="#FFDC71"/>
<path d="M42 293L42 251L84 251L84 293L42 293Z" fill="#E8B726"/>
<path d="M84 293L84 251L126 251L126 293L84 293Z" fill="#E8B726"/>
<path d="M42 335L42 293L84 293L84 335L42 335Z" fill="#E8B726"/>
<path d="M84 335L84 293L126 293L126 335L84 335Z" fill="#E8B726"/>
<path d="M42 377L42 335L84 335L84 377L42 377Z" fill="#E8B726"/>
<path d="M84 377L84 335L126 335L126 377L84 377Z" fill="#E8B726"/>
<path d="M42 419L42 377L84 377L84 419L42 419Z" fill="#E8B726"/>
<path d="M84 419L84 377L126 377L126 419L84 419Z" fill="#E8B726"/>
</svg>
